<svg id="Layer_1" data-name="Layer 1" xmlns="http://www.w3.org/2000/svg" viewBox="0 0 92.69 114.91"><defs><style>.cls-1{fill:#d31e2b;}.cls-2{fill:#1b1235;}.cls-3{isolation:isolate;font-size:5px;font-family:HelveticaNeue-Bold, Helvetica Neue;font-weight:700;}.cls-4{letter-spacing:-0.02em;}.cls-5{letter-spacing:0em;}</style></defs><title>club</title><path class="cls-1" d="M22.62,92.5C22.61,84.15,9,72.37,9,72.37S22.62,60.18,22.62,52.24c0,7.94,13.57,20.13,13.57,20.13S22.61,84.15,22.62,92.5Z" transform="translate(0 -7.5)"/><path class="cls-1" d="M49.5,18.3a10.75,10.75,0,0,1,21.44-1.24h.26A10.77,10.77,0,0,1,92.67,18.3c.37,8-6.45,14.29-6.45,14.29S72.46,44.5,71.07,47.76c-1.52-3.26-16-15.51-16-15.51S48.54,26.16,49.5,18.3Z" transform="translate(0 -7.5)"/><path class="cls-2" d="M83,67.22a8.71,8.71,0,0,0-4-1,8.4,8.4,0,0,0,1.68-5c0-4.92-4.33-8.91-9.68-8.91s-9.69,4-9.69,8.91a8.42,8.42,0,0,0,1.61,4.92,12.56,12.56,0,0,0-4.47,1.37c-1.55.94-5.17,3.78-4.41,8.67,0,3.71,3.81,6.72,8.51,6.72a9.1,9.1,0,0,0,7.21-3.21v0c-.7,3.66-3.08,9.59-7,12.86H79.37c-3.85-4.64-6.26-9.57-7-12.86h0a9.11,9.11,0,0,0,7.22,3.2c4.7,0,8.51-3,8.51-6.72C88.41,71.16,84.53,68.33,83,67.22Z" transform="translate(0 -7.5)"/><path class="cls-2" d="M33.27,19.33S23.65,9.78,22.68,7.5C21.61,9.78,11.5,19.56,11.5,19.56s-4.58,4.26-3.92,9.77a7.53,7.53,0,0,0,14,4h0c-.61,4.12-2.72,10.8-6.2,14.47H30a42.07,42.07,0,0,1-6.19-14.47h0a7.53,7.53,0,0,0,14-4C38,23.75,33.27,19.33,33.27,19.33Z" transform="translate(0 -7.5)"/><text class="cls-3" transform="translate(0 107.5)">C<tspan class="cls-4" x="3.71" y="0">r</tspan><tspan x="5.56" y="0">eated by Víctor Mosqueda</tspan></text><text class="cls-3" transform="translate(0 112.5)">f<tspan class="cls-4" x="1.67" y="0">r</tspan><tspan class="cls-5" x="3.52" y="0">om the Noun P</tspan><tspan class="cls-4" x="38.89" y="0">r</tspan><tspan x="40.75" y="0">oject</tspan></text></svg>