<svg id="Layer_1" data-name="Layer 1" xmlns="http://www.w3.org/2000/svg" viewBox="0 0 88 102.53"><defs><style>.cls-1{fill:#f22a59;}.cls-2{isolation:isolate;font-size:5px;font-family:HelveticaNeue-Bold, Helvetica Neue;font-weight:700;}.cls-3{letter-spacing:-0.02em;}.cls-4{letter-spacing:0em;}</style></defs><title>hello</title><path class="cls-1" d="M39.85,19.87c-1.22,0-2.45.05-3.66.16-6.46.59-12.61,2.7-17,6.19A17.75,17.75,0,0,0,12,40.81c0,6.28,3.64,12,9.6,16a2,2,0,0,1,.53,2.78l-.09.13-4.79,5.87,14.44-4.25a2.12,2.12,0,0,1,1,0l.31.1a38.25,38.25,0,0,0,23-3.29C63,54.61,67.94,49,67.94,40.81a18.36,18.36,0,0,0-1.22-6.65v0c-2-5.13-6.24-8.9-11.78-11.31a38.34,38.34,0,0,0-15.09-2.94Z" transform="translate(0 -19.87)"/><path d="M71.44,36a27.07,27.07,0,0,1,10.9,6A17.54,17.54,0,0,1,88,55.32c0,6.29-3.59,12-9.55,16a2,2,0,0,0-.55,2.77l.11.15,4.77,5.89L68.36,75.87a2,2,0,0,0-1,0,38.05,38.05,0,0,1-19.49-1.5c-5.09-1.8-9.54-4.68-12.4-8.55a41.8,41.8,0,0,0,22.31-4.07c7.91-4,14.13-11.07,14.13-20.91A23,23,0,0,0,71.44,36Z" transform="translate(0 -19.87)"/><text class="cls-2" transform="translate(0 95.13)">C<tspan class="cls-3" x="3.71" y="0">r</tspan><tspan x="5.56" y="0">eated by Royyan Razka</tspan></text><text class="cls-2" transform="translate(0 100.13)">f<tspan class="cls-3" x="1.67" y="0">r</tspan><tspan class="cls-4" x="3.52" y="0">om the Noun P</tspan><tspan class="cls-3" x="38.89" y="0">r</tspan><tspan x="40.75" y="0">oject</tspan></text></svg>