<svg xmlns:dc="http://purl.org/dc/elements/1.1/" xmlns:cc="http://creativecommons.org/ns#" xmlns:rdf="http://www.w3.org/1999/02/22-rdf-syntax-ns#" xmlns:svg="http://www.w3.org/2000/svg" xmlns="http://www.w3.org/2000/svg" xmlns:sodipodi="http://sodipodi.sourceforge.net/DTD/sodipodi-0.dtd" xmlns:inkscape="http://www.inkscape.org/namespaces/inkscape" version="1.1" x="0px" y="0px" viewBox="0 0 100 125"><g transform="translate(0,-952.36218)"><path style="text-indent:0;text-transform:none;direction:ltr;block-progression:tb;baseline-shift:baseline;color:#000000;enable-background:accumulate;" d="m 39.847628,972.23578 c -1.2223,0.003 -2.4444,0.0464 -3.6563,0.15625 -6.4632,0.58578 -12.6154,2.70422 -17.0312,6.1875 -4.4158,3.48328 -7.1562,8.21606 -7.1562,14.59376 0,6.2827 3.6321,12.00551 9.5937,16.00001 a 2.0001998,2.0001998 0 0 1 0.4375,2.9062 l -4.7812,5.875 14.4374,-4.25 a 2.0001998,2.0001998 0 0 1 1,-0.031 l 0.3126,0.094 c 7.0284,1.3473 16.0088,0.2336 23,-3.2812 6.9975,-3.5182 11.9374,-9.1247 11.9374,-17.31251 0,-2.451 -0.4593,-4.6874 -1.2187,-6.6563 a 2.0001998,2.0001998 0 0 1 0,-0.031 c -1.9645,-5.13889 -6.2391,-8.90691 -11.7813,-11.31246 -4.5028,-1.95452 -9.7972,-2.94856 -15.0937,-2.9375 z m -1.1563,5.53125 a 2.0001998,2.0001998 0 0 1 0.1876,0 2.0001998,2.0001998 0 0 1 2.0312,2.03125 l 0,15.71871 a 2.0001998,2.0001998 0 1 1 -4,0 l 0,-15.71871 a 2.0001998,2.0001998 0 0 1 1.7812,-2.03125 z m 0,21.68746 a 2.0001998,2.0001998 0 0 1 0.1876,0 2.0001998,2.0001998 0 0 1 2.0312,2.03131 l 0,0.5937 a 2.0001998,2.0001998 0 1 1 -4,0 l 0,-0.5937 a 2.0001998,2.0001998 0 0 1 1.7812,-2.03131 z" fill="#000000" fill-opacity="1" fill-rule="evenodd" stroke="none" marker="none" visibility="visible" display="inline" overflow="visible"/><path style="text-indent:0;text-transform:none;direction:ltr;block-progression:tb;baseline-shift:baseline;color:#000000;enable-background:accumulate;" d="m 71.444402,988.40429 c 4.254271,1.2825 8.049224,3.3124 10.895669,6.017 3.519566,3.3442 5.656001,7.64871 5.656001,13.26081 0,6.2904 -3.589757,12.0035 -9.548112,15.9959 a 2.0001997,2.0001997 0 0 0 -0.440681,2.9198 l 4.770142,5.8908 -14.419027,-4.2564 a 2.0001997,2.0001997 0 0 0 -0.973311,-0.039 c -5.850567,1.2179 -13.12937,0.7306 -19.480429,-1.5036 -5.097295,-1.7932 -9.545208,-4.6757 -12.403807,-8.5427 7.277705,0.7104 15.454169,-0.6288 22.310681,-4.076 7.906287,-3.9749 14.124507,-11.0702 14.124507,-20.90661 0,-1.657 -0.175004,-3.2478 -0.491633,-4.76021 z" fill="#000000" fill-opacity="1" fill-rule="evenodd" stroke="none" marker="none" visibility="visible" display="inline" overflow="visible"/></g><text x="0" y="115" fill="#000000" font-size="5px" font-weight="bold" font-family="'Helvetica Neue', Helvetica, Arial-Unicode, Arial, Sans-serif">Created by Royyan Razka</text><text x="0" y="120" fill="#000000" font-size="5px" font-weight="bold" font-family="'Helvetica Neue', Helvetica, Arial-Unicode, Arial, Sans-serif">from the Noun Project</text></svg>