<svg xmlns="http://www.w3.org/2000/svg" xmlns:xlink="http://www.w3.org/1999/xlink" version="1.1" x="0px" y="0px" viewBox="0 0 100 125" enable-background="new 0 0 100 100" xml:space="preserve"><g><path d="M22.616,92.5C22.615,84.153,9.036,72.371,9.036,72.371s13.58-12.188,13.581-20.134   C22.615,60.183,36.193,72.37,36.193,72.37S22.615,84.153,22.616,92.5z"/><path d="M49.496,18.299c0-5.961,4.826-10.798,10.784-10.798c5.54,0,10.043,4.184,10.665,9.554c0.087,0,0.17,0,0.257,0.004   C71.818,11.684,76.342,7.5,81.88,7.5c5.965,0,10.795,4.837,10.795,10.798c0.365,7.963-6.457,14.288-6.457,14.288   S72.464,44.503,71.073,47.763c-1.526-3.26-15.985-15.511-15.985-15.511S48.539,26.164,49.496,18.299z"/><path d="M83.021,67.225c-0.592-0.434-2.162-0.959-4.002-1.053c1.063-1.432,1.683-3.161,1.683-5.021   c0-4.923-4.333-8.913-9.686-8.913c-5.351,0-9.684,3.99-9.684,8.915c0,1.816,0.594,3.503,1.604,4.912   c-2.058,0.247-3.83,0.987-4.466,1.37c-1.549,0.941-5.168,3.784-4.412,8.676c0,3.71,3.807,6.718,8.509,6.718   c3.066,0,5.727-1.287,7.211-3.207c0,0.006,0,0.009-0.002,0.014c-0.697,3.66-3.075,9.596-6.996,12.865l16.59-0.004   c-3.847-4.636-6.257-9.564-6.983-12.861c0-0.005-0.002-0.007-0.002-0.01c1.488,1.918,4.152,3.203,7.22,3.203   c4.702,0,8.511-3.011,8.511-6.718C88.406,71.157,84.528,68.327,83.021,67.225z"/><path d="M33.273,19.33c0,0-9.623-9.549-10.592-11.83C21.61,9.781,11.496,19.563,11.496,19.563s-4.581,4.26-3.914,9.762   c0,4.171,3.378,7.554,7.548,7.554c2.718,0,5.077-1.444,6.396-3.604c0,0.005-0.002,0.01-0.003,0.015   c-0.618,4.116-2.728,10.796-6.203,14.473l14.715-0.004c-3.412-5.215-5.552-10.759-6.197-14.469c0-0.004-0.001-0.008-0.002-0.011   c1.321,2.158,3.685,3.601,6.404,3.601c4.172,0,7.552-3.383,7.552-7.555C38.045,23.755,33.273,19.33,33.273,19.33z"/></g><text x="0" y="115" fill="#000000" font-size="5px" font-weight="bold" font-family="'Helvetica Neue', Helvetica, Arial-Unicode, Arial, Sans-serif">Created by Víctor Mosqueda</text><text x="0" y="120" fill="#000000" font-size="5px" font-weight="bold" font-family="'Helvetica Neue', Helvetica, Arial-Unicode, Arial, Sans-serif">from the Noun Project</text></svg>