<svg id="Layer_1" data-name="Layer 1" xmlns="http://www.w3.org/2000/svg" viewBox="0 0 64.9 112.41"><defs><style>.cls-1{fill:#15bcb8;}.cls-2{isolation:isolate;font-size:5px;font-family:HelveticaNeue-Bold, Helvetica Neue;font-weight:700;}.cls-3{letter-spacing:-0.02em;}.cls-4{letter-spacing:0em;}</style></defs><title>person</title><path class="cls-1" d="M57.9,30.3H42.1a7,7,0,0,0-7,7.1V59.2a7.09,7.09,0,0,0,6,6.9V84.7c0,3,1.8,5.4,4,5.4h9.8c2.2,0,4-2.4,4-5.4V66a7.09,7.09,0,0,0,6-6.9V37.3A7,7,0,0,0,57.9,30.3Z" transform="translate(0 -10)"/><circle class="cls-1" cx="50" cy="8.9" r="8.9"/><text class="cls-2" transform="translate(0 105)">C<tspan class="cls-3" x="3.71" y="0">r</tspan><tspan x="5.56" y="0">eated by Musmellow</tspan></text><text class="cls-2" transform="translate(0 110)">f<tspan class="cls-3" x="1.67" y="0">r</tspan><tspan class="cls-4" x="3.52" y="0">om the Noun P</tspan><tspan class="cls-3" x="38.89" y="0">r</tspan><tspan x="40.75" y="0">oject</tspan></text></svg>